<?xml version="1.0" encoding="UTF-8"?>
<svg id="_图层_2" data-name="图层 2" xmlns="http://www.w3.org/2000/svg" viewBox="0 0 438.14 435.86">
  <defs>
    <style>
      .cls-1 {
        fill: #d7eefa;
      }

      .cls-2 {
        fill: #fdfeff;
      }

      .cls-3 {
        fill: #fff;
      }

      .cls-4 {
        fill: #55b4e7;
      }

      .cls-5 {
        stroke: #2a6fae;
        stroke-width: 9.02px;
      }

      .cls-5, .cls-6 {
        fill: none;
        stroke-linecap: round;
        stroke-linejoin: round;
      }

      .cls-7 {
        fill: #b6e1f5;
      }

      .cls-6 {
        stroke: #fdfeff;
        stroke-width: 6.31px;
      }

      .cls-8 {
        fill: #fcfeff;
      }
    </style>
  </defs>
  <g id="_图层_1-2" data-name="图层 1">
    <g id="_生成式对象" data-name="生成式对象">
      <g>
        <path class="cls-1" d="M338.28,162.18c-.31.03-.6.14-.91,0-78.81.2-157.61-.43-236.42-.21l-.48-.42c-.09-3.49,29.47-59.85,32.24-61.97,5.41-4.14,24.42,10.49,28.77,6.41,6.43-11.02,41.34-100.02,46.75-101.41,2.01-.52,24.15,1.92,25.42,3.47,8.76,31.06,20.39,61.32,36.88,89.11l33.35-15.57,34.56,77.83c.07.56-.41,1.22-.41,1.89l.25.87Z"/>
        <path class="cls-7" d="M337.37,162.18l.25,1.01c-1.68,26.57-30.7,77.14-34.42,106.69-6.12,8.63-26.91,12.27-33.56,18.94-9.84,9.88-19.6,60.09-29.05,73.06-3.34,4.58-22.13,3.93-25.08-1.8l-43.66-99.22c-7.56-6.52-20.8-6.16-27.24-13.53-5.93-19.34-42.68-68.29-44.06-84.88l.39-.48c78.8-.22,157.61.41,236.42.21Z"/>
        <g>
          <path class="cls-4" d="M100.95,161.98l-.39.48c1.38,16.59,38.14,65.54,44.06,84.88,6.44,7.37,19.68,7.01,27.24,13.53l43.66,99.22c2.95,5.74,21.74,6.39,25.08,1.8,9.45-12.98,19.21-63.18,29.05-73.06,6.64-6.67,27.44-10.32,33.56-18.94,3.72-29.56,32.74-80.12,34.42-106.69l-.25-1.01c.31.13.6.03.91,0,31.1-2.88,64.14,1.02,95.35,1.01v243.81c-1.9,13.81-9.79,21.44-23.27,24.35-129.74-2.12-260.6,2.71-389.68-2.89-9.5-4.79-14.55-13.77-15.15-24.17,0-80.67,1.61-161.58-1.01-242.11h.91c31.84-.13,63.69-.11,95.53-.2Z"/>
          <path class="cls-3" d="M372.92,271.69c9.48-.99,10.91,8.68,14.43,9.02,1.87.18,7.36-4.23,9.02-4.51,6.85-1.14,8.86,1.93,14.43,3.61.49.15,8.82-2.95,7.67,3.16-1.66,8.79-16.94-.31-21.2.45-2.45.44-5.51,5-10.82,4.51-5.78-.54-8.73-8.57-10.82-9.02-1.79-.39-21.65,11.23-23.9,4.06s9.76-5.66,13.08-6.77c1.53-.51,5.44-4.23,8.12-4.51Z"/>
        </g>
      </g>
      <g>
        <path class="cls-6" d="M381.46,366.75c-5.55.52-8.73-4-13.5-4.85-5.73-1.02-8.24,3.05-12.63,3.61-5.89.75-9.6-4.62-14.43-4.51-3.75.09-8.49,4.62-12.63,4.51-5.94-.16-11.73-8.25-18.85-2.14"/>
        <path class="cls-2" d="M83.13,353.34l65.85,4.51c2.34-.45,4.61-.21,5.39,2.68-1.29,1.99-3.55,3.12-5.82,3.62l-65.85-4.51c-3.34.8-6.44,3.62-7.71-2.24.39-.89,3.94-3.09,5.27-3.77.96-.42,2.08-.32,2.87-.29,0,0-.79-.03,0,0Z"/>
        <path class="cls-8" d="M120.62,285.77l-64.94-3.71c-2.77.31-7.71,2.17-6.32-2.86.26-.91,3.12-2.77,4.39-3.34.76-.42,1.5-.33,2.3-.1l64.94,3.71c4.14.36,3.83,6.41-.36,6.3h0Z"/>
        <path class="cls-5" d="M4.51,162.18h.91c31.84-.13,63.69-.11,95.53-.2,78.8-.22,157.61.41,236.42.21h.91c31.1-2.88,64.14,1.02,95.35,1v243.81c-1.9,13.81-9.79,21.44-23.27,24.35-129.74-2.12-260.6,2.71-389.68-2.89-9.5-4.79-14.55-13.77-15.15-24.17,0-80.67,1.61-161.58-1.01-242.11Z"/>
        <path class="cls-5" d="M338.43,159.42l-34.56-77.83-33.35,15.57c-16.49-27.79-28.12-58.04-36.88-89.11-1.27-1.54-23.41-3.99-25.42-3.47-5.41,1.4-40.32,90.39-46.75,101.41-4.35,4.08-23.36-10.55-28.77-6.41-2.77,2.12-32.34,58.48-32.24,61.97,0,.3.06.6.09.9,1.38,16.59,38.14,65.54,44.06,84.88,6.44,7.37,19.68,7.01,27.24,13.53l43.66,99.22c2.95,5.74,21.74,6.39,25.08,1.8,9.45-12.98,19.21-63.18,29.05-73.06,6.64-6.67,27.44-10.32,33.56-18.94,3.72-29.56,32.74-80.12,34.42-106.69.04-.63.41-1.27.41-1.89,0-.67.48-1.33.41-1.89Z"/>
      </g>
    </g>
  </g>
</svg>